# xmcd CD database file
#
# Track frame offsets:
#	150
#	13463
#	36630
#	51645
#	66330
#	87925
#	101620
#	115750
#	133838
#	150118
#	165190
#	178465
#	193418
#	213523
#	229898
#	244048
#	271558
#	289108
#
# Disc length: 4109 seconds
#
# Revision: 0
# Processed by: cddbd v1.5.2PL0 Copyright (c) Steve Scherf et al.
# Submitted via: CDex 1.70beta2
#
DISCID=0d100b12
DTITLE=Eric Clapton - From The Cradle
DYEAR=1994
DGENRE=Blues
TTITLE0=Blues Before Sunrise
TTITLE1=Third Degree
TTITLE2=Reconsider Baby
TTITLE3=Hoochie Coochie Man
TTITLE4=Five Long Years
TTITLE5=I'm Tore Down
TTITLE6=How Long Blues
TTITLE7=Goin' Away Baby
TTITLE8=Blues Leave Me Alone
TTITLE9=Sinner's Prayer
TTITLE10=Motherless Child
TTITLE11=It Hurts Me Too
TTITLE12=Someday After A While
TTITLE13=Standin' Round Crying
TTITLE14=Driftin'
TTITLE15=Groaning The Blues
TTITLE16=Bonus Track - If I Could Change The World
TTITLE17=Bonus Track - Instrumental
EXTD=YEAR: 1994
EXTT0=
EXTT1=
EXTT2=
EXTT3=
EXTT4=
EXTT5=
EXTT6=
EXTT7=
EXTT8=
EXTT9=
EXTT10=
EXTT11=
EXTT12=
EXTT13=
EXTT14=
EXTT15=
EXTT16=
EXTT17=
PLAYORDER=
